<svg width="22" height="20" viewBox="0 0 22 20" fill="none" xmlns="http://www.w3.org/2000/svg">
<path d="M20.8753 7.0776C20.4454 6.58224 19.9142 6.18503 19.3174 5.91285C18.7207 5.64067 18.0725 5.49988 17.4167 5.50002H13.7601L14.0681 3.6291C14.1771 2.97026 14.0456 2.29419 13.6976 1.72422C13.3497 1.15424 12.8084 0.728324 12.1726 0.524163C11.5368 0.320002 10.8488 0.351196 10.234 0.612056C9.61927 0.872916 9.11879 1.34606 8.82383 1.94519L7.06933 5.50002H4.58333C3.3682 5.50148 2.20326 5.98483 1.34403 6.84406C0.484808 7.70328 0.00145554 8.86823 0 10.0834L0 14.6667C0.00145554 15.8818 0.484808 17.0468 1.34403 17.906C2.20326 18.7652 3.3682 19.2486 4.58333 19.25H16.775C17.8782 19.2455 18.9431 18.8451 19.776 18.1217C20.6089 17.3984 21.1544 16.4 21.3134 15.3084L21.9597 10.725C22.0507 10.0749 22.001 9.41273 21.8139 8.78346C21.6268 8.15418 21.3067 7.57244 20.8753 7.0776ZM1.83333 14.6667V10.0834C1.83333 9.35401 2.12306 8.65454 2.63879 8.13881C3.15451 7.62309 3.85399 7.33335 4.58333 7.33335H6.41667V17.4167H4.58333C3.85399 17.4167 3.15451 17.127 2.63879 16.6112C2.12306 16.0955 1.83333 15.396 1.83333 14.6667ZM20.1401 10.4674L19.4929 15.0508C19.3983 15.7053 19.0719 16.3041 18.5731 16.7382C18.0743 17.1724 17.4363 17.4132 16.775 17.4167H8.25V7.08952C8.33639 7.01426 8.4079 6.92347 8.46083 6.82185L10.4674 2.75644C10.5427 2.62071 10.649 2.50477 10.7778 2.41815C10.9066 2.33154 11.0541 2.27671 11.2082 2.25819C11.3623 2.23967 11.5185 2.25797 11.6642 2.3116C11.8098 2.36523 11.9406 2.45266 12.0459 2.56669C12.136 2.67141 12.2018 2.79472 12.2387 2.92782C12.2757 3.06092 12.2827 3.20053 12.2595 3.33669L11.7755 6.27002C11.7543 6.40109 11.7617 6.5352 11.7974 6.66309C11.8331 6.79098 11.8962 6.90959 11.9822 7.01071C12.0683 7.11184 12.1752 7.19306 12.2958 7.24877C12.4163 7.30448 12.5475 7.33334 12.6803 7.33335H17.4167C17.8103 7.3333 18.1993 7.41775 18.5575 7.58099C18.9157 7.74423 19.2346 7.98245 19.4928 8.27957C19.751 8.57668 19.9424 8.92576 20.0541 9.30321C20.1657 9.68066 20.1951 10.0777 20.1401 10.4674Z" fill="#F8F8F8"/>
</svg>
