<svg width="55" height="61" viewBox="0 0 55 61" fill="none" xmlns="http://www.w3.org/2000/svg">
<path d="M45.6396 25.1476L39.5559 33.836L32.1698 35.1384L26.8466 42.7407L25.707 36.2779L17.3977 37.7431L12.5138 10.0454L42.0581 4.83592L45.6396 25.1476Z" fill="white"/>
<path d="M10.0161 6.67793L2.41152 17.5385L8.27215 50.7757L19.3512 48.8222L20.9792 58.0547L28.5838 47.1942L35.9699 45.8919L49.6582 26.3429L45.0999 0.49171L10.0161 6.67793ZM45.6396 25.1476L39.5559 33.836L32.1698 35.1384L26.8466 42.7407L25.707 36.2779L17.3977 37.7431L12.5138 10.0454L42.0581 4.83592L45.6396 25.1476Z" fill="#9146FF"/>
<path d="M37.6581 12.2755L33.9651 12.9267L35.9186 24.0058L39.6116 23.3546L37.6581 12.2755Z" fill="#9146FF"/>
<path d="M27.5023 14.0662L23.8092 14.7174L25.7628 25.7965L29.4558 25.1453L27.5023 14.0662Z" fill="#9146FF"/>
</svg>
