<svg width="22" height="22" viewBox="0 0 22 22" fill="none" xmlns="http://www.w3.org/2000/svg">
<g clip-path="url(#clip0)">
<path d="M14.3862 10.0114L9.52593 7.35205C9.24647 7.19915 8.91615 7.20485 8.64222 7.36716C8.36813 7.52963 8.20465 7.81665 8.20465 8.13522V13.4083C8.20465 13.7253 8.36712 14.0118 8.63937 14.1745C8.78153 14.2594 8.93914 14.3021 9.09708 14.3021C9.24177 14.3021 9.38678 14.2663 9.52022 14.1945L14.3807 11.5809C14.6692 11.4257 14.8493 11.1257 14.8507 10.7979C14.8518 10.4701 14.6739 10.1688 14.3862 10.0114ZM9.49387 12.7449V8.80392L13.1264 10.7916L9.49387 12.7449Z" fill="#F8F8F8"/>
<path d="M21.8381 6.59692L21.8371 6.58685C21.8185 6.40978 21.633 4.83471 20.8673 4.03358C19.9822 3.09129 18.9789 2.97682 18.4963 2.92194C18.4563 2.9174 18.4198 2.91321 18.387 2.90884L18.3486 2.90481C15.4402 2.69333 11.0478 2.66446 11.0038 2.66429L11 2.66412L10.9961 2.66429C10.9521 2.66446 6.55976 2.69333 3.62514 2.90481L3.58637 2.90884C3.55515 2.91304 3.52074 2.9169 3.48331 2.92126C3.00629 2.97632 2.01365 3.09096 1.12608 4.06732C0.396788 4.85988 0.185973 6.40121 0.164321 6.57443L0.161804 6.59692C0.155258 6.67061 0 8.42477 0 10.1858V11.832C0 13.5931 0.155258 15.3472 0.161804 15.4211L0.162979 15.4322C0.181609 15.6064 0.366911 17.1526 1.1291 17.9541C1.96128 18.8648 3.01351 18.9853 3.57948 19.0501C3.66895 19.0603 3.74599 19.0691 3.79852 19.0783L3.84938 19.0853C5.52868 19.2451 10.7938 19.3238 11.0171 19.327L11.0238 19.3272L11.0305 19.327C11.0745 19.3269 15.4667 19.298 18.3751 19.0865L18.4135 19.0825C18.4503 19.0776 18.4916 19.0733 18.5369 19.0686C19.0112 19.0182 19.9985 18.9136 20.8738 17.9505C21.6031 17.1578 21.8141 15.6165 21.8356 15.4434L21.8381 15.4209C21.8447 15.3471 22.0001 13.5931 22.0001 11.832V10.1858C21.9999 8.42477 21.8447 6.67078 21.8381 6.59692ZM20.7107 11.832C20.7107 13.462 20.5684 15.1406 20.5549 15.2947C20.5002 15.7192 20.2778 16.6944 19.9225 17.0806C19.3746 17.6833 18.8118 17.7431 18.401 17.7865C18.3513 17.7917 18.3053 17.7968 18.2637 17.802C15.4506 18.0054 11.224 18.0366 11.0293 18.0378C10.811 18.0346 5.62284 17.9552 3.99474 17.804C3.91132 17.7904 3.82118 17.78 3.72618 17.7693C3.2443 17.714 2.58466 17.6385 2.07743 17.0806L2.06551 17.0678C1.71639 16.7041 1.50038 15.7922 1.44549 15.2997C1.43525 15.1833 1.28923 13.4848 1.28923 11.832V10.1858C1.28923 8.5577 1.43122 6.88092 1.44499 6.72365C1.51028 6.22363 1.73687 5.30753 2.07743 4.93726C2.64206 4.31623 3.23741 4.24741 3.63118 4.20193C3.66878 4.19756 3.70386 4.19354 3.73625 4.18934C6.59031 3.9849 10.8472 3.95452 11 3.95335C11.1527 3.95436 15.4081 3.9849 18.2368 4.18934C18.2716 4.1937 18.3095 4.19807 18.3503 4.20277C18.7553 4.24893 19.3674 4.31875 19.9292 4.91796L19.9344 4.9235C20.2835 5.28722 20.4995 6.21507 20.5544 6.71744C20.5642 6.82738 20.7107 8.5295 20.7107 10.1858V11.832Z" fill="#F8F8F8"/>
</g>
<defs>
<clipPath id="clip0">
<rect width="22" height="21.9999" fill="white"/>
</clipPath>
</defs>
</svg>
