<svg width="55" height="49" viewBox="0 0 55 49" fill="none" xmlns="http://www.w3.org/2000/svg">
<path d="M48.1753 6.83957C47.721 5.74216 47.0191 4.79934 46.1396 4.10532C45.2601 3.4113 44.2339 2.9904 43.1634 2.88465C39.2186 2.48439 24.1278 5.51149 24.1278 5.51149C24.1278 5.51149 9.03302 8.5394 5.45156 10.4309C4.47533 10.9479 3.63624 11.7455 3.01869 12.7434C2.40115 13.7413 2.02694 14.9042 1.93373 16.1153C1.58223 20.5595 2.9548 29.415 2.9548 29.415C2.9548 29.415 4.32736 38.2704 5.99379 42.3099C6.44742 43.4078 7.1492 44.3512 8.02883 45.0453C8.90846 45.7394 9.93504 46.1599 11.0057 46.2648C14.9438 46.6479 30.0346 43.6208 30.0346 43.6208C30.0346 43.6208 45.1294 40.5929 48.7148 38.7006C49.6889 38.1848 50.5267 37.3899 51.1445 36.3956C51.7623 35.4012 52.1384 34.2421 52.2354 33.0341C52.5829 28.5907 51.2104 19.7353 51.2104 19.7353C51.2104 19.7353 49.8259 10.8822 48.1753 6.83957Z" fill="#FF0000"/>
<path d="M23.5212 33.7043L34.7968 23.0276L20.9913 17.382L23.5212 33.7043Z" fill="white"/>
</svg>
